<?xml version="1.0" encoding="UTF-8" standalone="no"?>
<svg
   xmlns:dc="http://purl.org/dc/elements/1.1/"
   xmlns:cc="http://creativecommons.org/ns#"
   xmlns:rdf="http://www.w3.org/1999/02/22-rdf-syntax-ns#"
   xmlns:svg="http://www.w3.org/2000/svg"
   xmlns="http://www.w3.org/2000/svg"
   viewBox="0 0 412.61868 508.07199"
   height="508.07199"
   width="412.61868"
   xml:space="preserve"
   id="svg2"
   version="1.1"><metadata
     id="metadata8"><rdf:RDF><cc:Work
         rdf:about=""><dc:format>image/svg+xml</dc:format><dc:type
           rdf:resource="http://purl.org/dc/dcmitype/StillImage" /></cc:Work></rdf:RDF></metadata><defs
     id="defs6"><clipPath
       id="clipPath18"
       clipPathUnits="userSpaceOnUse"><path
         id="path16"
         d="M 0,381.054 H 309.464 V 0 H 0 Z" /></clipPath></defs><g
     transform="matrix(1.3333333,0,0,-1.3333333,0,508.072)"
     id="g10"><g
       id="g12"><g
         clip-path="url(#clipPath18)"
         id="g14"><g
           transform="translate(214.0866,175.459)"
           id="g20"><path
             id="path22"
             style="fill:#ffde17;fill-opacity:1;fill-rule:nonzero;stroke:none"
             d="M 0,0 -44.36,35.913 H -16.817 0 Z M -103.519,35.913 H -75.91 L -120.336,0.245 v 35.668 z m -16.817,11.133 v 26.65 h 31.198 c -7.519,-6.768 -12.654,-16.124 -14.011,-26.65 z m 28.433,0 c 2.644,15.121 15.868,26.65 31.735,26.65 15.867,0 29.091,-11.529 31.735,-26.65 z m 37.542,-26.762 52.985,-92.758 -53.146,-53.146 z m -11.134,0.514 -0.161,-146.576 -53.3,53.299 z m -54.841,-34.831 40.836,32.785 -40.836,-71.249 z M 0,-52.436 -40.497,18.46 0,-14.325 Z m -17.187,99.482 c -1.357,10.526 -6.493,19.882 -14.011,26.65 H 0 V 47.046 Z M -131.47,85.39 V 84.829 35.913 -75.71 l 71.302,-71.302 71.302,71.302 V 35.913 84.829 85.39 Z" /></g><g
           transform="translate(33.3332,276.2832)"
           id="g24"><path
             id="path26"
             style="fill:#ffde17;fill-opacity:1;fill-rule:nonzero;stroke:none"
             d="M 0,0 C 1.995,0.289 3.995,1.132 5.112,2.332 6.322,3.631 6.41,4.577 5.685,5.252 4.911,5.973 3.892,5.382 2.062,4.519 L -0.672,3.286 c -2.33,-1.098 -5.224,-1.249 -7.572,0.939 -2.776,2.582 -2.722,7.2 0.582,10.748 1.723,1.85 4.331,3.247 7.202,3.374 l 0.697,-4.663 c -1.798,-0.377 -3.082,-0.956 -4.2,-2.155 -0.977,-1.05 -1.207,-2.049 -0.482,-2.724 0.774,-0.721 1.91,-0.052 3.858,0.887 l 2.614,1.253 C 4.712,12.224 7.182,12.071 9.431,9.976 12.179,7.417 12.488,2.837 8.718,-1.212 6.81,-3.261 3.872,-4.912 0.669,-5.195 Z" /></g><g
           transform="translate(56.257,317.0186)"
           id="g28"><path
             id="path30"
             style="fill:#ffde17;fill-opacity:1;fill-rule:nonzero;stroke:none"
             d="m 0,0 5.047,3.007 6.225,-10.446 c 2.028,-3.404 3.643,-4.111 5.639,-2.924 1.995,1.19 2.2,2.983 0.172,6.387 l -6.227,10.446 4.873,2.904 5.875,-9.861 c 3.882,-6.515 3.236,-11.035 -2.104,-14.217 -5.343,-3.184 -9.743,-1.67 -13.625,4.843 z" /></g><g
           transform="translate(103.0705,339.1099)"
           id="g32"><path
             id="path34"
             style="fill:#ffde17;fill-opacity:1;fill-rule:nonzero;stroke:none"
             d="m 0,0 5.837,1.426 7.129,-8.453 3.239,-4.341 0.134,0.032 c -0.833,2.258 -2.092,5.395 -2.741,8.049 l -1.522,6.238 5.44,1.329 5.268,-21.564 -5.838,-1.428 -7.137,8.488 -3.232,4.308 -0.132,-0.033 c 0.866,-2.39 2.091,-5.394 2.74,-8.05 l 1.523,-6.236 -5.441,-1.329 z" /></g><g
           transform="translate(159.4225,336.0547)"
           id="g36"><path
             id="path38"
             style="fill:#ffde17;fill-opacity:1;fill-rule:nonzero;stroke:none"
             d="M 0,0 2.114,-0.107 C 4.435,-0.224 5.714,0.737 5.811,2.648 5.906,4.558 4.71,5.234 2.39,5.351 L 0.275,5.457 Z m 5.462,-12.383 -3.445,7.629 -2.252,0.114 -0.374,-7.438 -5.868,0.297 1.118,22.174 8.391,-0.422 C 7.809,9.729 11.82,7.886 11.542,2.358 11.382,-0.814 9.844,-2.822 7.636,-3.875 l 4.376,-8.838 z" /></g><g
           transform="translate(202.9596,339.1636)"
           id="g40"><path
             id="path42"
             style="fill:#ffde17;fill-opacity:1;fill-rule:nonzero;stroke:none"
             d="m 0,0 5.607,-1.756 -6.641,-21.193 -5.608,1.758 z" /></g><g
           transform="translate(232.2721,310.1035)"
           id="g44"><path
             id="path46"
             style="fill:#ffde17;fill-opacity:1;fill-rule:nonzero;stroke:none"
             d="m 0,0 c 0.677,-1.9 1.901,-3.694 3.299,-4.552 1.513,-0.929 2.457,-0.829 2.975,0.017 0.554,0.902 -0.226,1.783 -1.434,3.406 L 3.089,1.309 C 1.553,3.376 0.83,6.185 2.512,8.92 4.496,12.151 9.034,13.013 13.168,10.475 15.321,9.152 17.207,6.87 17.899,4.08 L 13.466,2.474 C 12.739,4.163 11.918,5.307 10.521,6.166 9.298,6.917 8.274,6.945 7.755,6.101 7.201,5.199 8.082,4.216 9.389,2.492 l 1.744,-2.315 c 1.786,-2.379 2.125,-4.832 0.515,-7.452 -1.966,-3.201 -6.396,-4.411 -11.113,-1.513 -2.387,1.466 -4.587,4.019 -5.498,7.105 z" /></g><g
           transform="translate(276.6061,295.6343)"
           id="g48"><path
             id="path50"
             style="fill:#ffde17;fill-opacity:1;fill-rule:nonzero;stroke:none"
             d="m 0,0 9.765,-10.508 -3.604,-3.347 -5.764,6.204 -2.551,-2.37 4.926,-5.304 -3.602,-3.347 -4.928,5.304 -2.901,-2.697 5.997,-6.455 -3.603,-3.348 -9.997,10.759 z" /></g></g></g></g></svg>